<?xml version="1.0" encoding="UTF-8" standalone="no"?>
<svg
   xmlns:dc="http://purl.org/dc/elements/1.1/"
   xmlns:cc="http://creativecommons.org/ns#"
   xmlns:rdf="http://www.w3.org/1999/02/22-rdf-syntax-ns#"
   xmlns:svg="http://www.w3.org/2000/svg"
   xmlns="http://www.w3.org/2000/svg"
   xmlns:sodipodi="http://sodipodi.sourceforge.net/DTD/sodipodi-0.dtd"
   xmlns:inkscape="http://www.inkscape.org/namespaces/inkscape"
   version="1.2"
   id="Layer_1"
   x="0px"
   y="0px"
   viewBox="0 0 133.888 120.51218"
   xml:space="preserve"
   sodipodi:docname="Open-source-hardware-logo.svg"
   width="133.888"
   height="120.51218"
   inkscape:version="0.92.3 (2405546, 2018-03-11)"><metadata
   id="metadata43"><rdf:RDF><cc:Work
       rdf:about=""><dc:format>image/svg+xml</dc:format><dc:type
         rdf:resource="http://purl.org/dc/dcmitype/StillImage" /><dc:title></dc:title></cc:Work></rdf:RDF></metadata><defs
   id="defs41" /><sodipodi:namedview
   pagecolor="#ffffff"
   bordercolor="#666666"
   borderopacity="1"
   objecttolerance="10"
   gridtolerance="10"
   guidetolerance="10"
   inkscape:pageopacity="0"
   inkscape:pageshadow="2"
   inkscape:window-width="1920"
   inkscape:window-height="1000"
   id="namedview39"
   showgrid="false"
   fit-margin-top="0"
   fit-margin-left="0"
   fit-margin-right="0"
   fit-margin-bottom="0"
   inkscape:zoom="1.3039106"
   inkscape:cx="66.944004"
   inkscape:cy="23.327278"
   inkscape:window-x="-9"
   inkscape:window-y="-9"
   inkscape:window-maximized="1"
   inkscape:current-layer="Layer_1" />
<path
   d="m 133.161,57.604001 -16.439,-3.057 c -0.4,-0.075 -0.838,-0.451 -0.973,-0.837 l -5.039,-11.756 c -0.188,-0.363 -0.152,-0.933 0.08,-1.271 l 9.578,-13.96 c 0.229,-0.336 0.184,-0.847 -0.105,-1.136 l -11.963,-11.963 c -0.289,-0.289 -0.799,-0.336 -1.135,-0.105 l -14.205,9.748 c -0.336,0.231 -0.912,0.272 -1.277,0.092 l -11.396,-4.665 c -0.387,-0.128 -0.764,-0.561 -0.84,-0.962 L 76.282,0.729 C 76.208,0.328 75.813,0 75.405,0 h -16.92 c -0.407,0 -0.802,0.328 -0.876,0.729 l -3.164,17.003001 c -0.076,0.401 -0.452,0.834 -0.84,0.962 l -11.397,4.665 c -0.366,0.18 -0.942,0.139 -1.277,-0.092 l -14.204,-9.748 c -0.337,-0.231 -0.848,-0.184 -1.136,0.105 l -11.964,11.963 c -0.288,0.289 -0.336,0.8 -0.105,1.136 l 9.579,13.96 c 0.23,0.338 0.266,0.908 0.079,1.271 l -5.04,11.756 c -0.134,0.386 -0.571,0.762 -0.973,0.837 l -16.438,3.057 c -0.402,0.076 -0.729,0.47 -0.729,0.878 l 0.001,16.919 c 0,0.408 0.328,0.805 0.729,0.878 l 16.035,2.984 c 0.401,0.073 0.83,0.453999 0.952,0.843 l 5.006,12.504997 c 0.179,0.367 0.137,0.941003 -0.095,1.277003 L 13.52,107.161 c -0.23,0.336 -0.183,0.848 0.105,1.137 l 11.965,11.963 c 0.288,0.287 0.799,0.334 1.136,0.105 l 13.038,-8.949 c 0.336,-0.23 0.899,-0.248 1.25,-0.043 l 5.75,3.07 c 0.364,0.186 0.789,0.029 0.945,-0.348 L 59.565,85.449 c 0.157,-0.377 0,-0.858 -0.348,-1.071 l -1.439,-0.881 c -0.266,-0.162 -0.627,-0.441 -0.91,-0.697 -5.191,-3.324 -8.635,-9.139 -8.635,-15.761 0,-10.334 8.378,-18.711 18.711,-18.711 10.333,0 18.71,8.377 18.71,18.711 0,6.622 -3.443,12.437 -8.635,15.761 -0.281,0.256 -0.643,0.535 -0.908,0.697 l -1.439,0.881 c -0.346,0.213 -0.504,0.694 -0.348,1.071 l 11.855,28.648 c 0.156,0.377 0.58,0.533 0.945,0.348 l 5.75,-3.07 c 0.352,-0.205 0.914,-0.188 1.25,0.043 l 13.039,8.949 c 0.336,0.229 0.848,0.182 1.135,-0.105 l 11.965,-11.963 c 0.289,-0.289 0.336,-0.801 0.105,-1.137 l -9.109,-13.273 c -0.23,-0.336 -0.273,-0.910003 -0.094,-1.277003 L 116.171,80.107 c 0.123,-0.388999 0.549,-0.769999 0.951,-0.843 l 16.035,-2.984 c 0.4,-0.073 0.729,-0.47 0.729,-0.878 l 0.002,-16.918999 c 0.001,-0.409001 -0.327,-0.803 -0.727,-0.879001"
   id="path2"
   inkscape:connector-curvature="0"
   style="fill:#0099b0" />

















</svg>